<svg xmlns="http://www.w3.org/2000/svg" width="1600" height="1000" viewBox="0 0 1600 1000">
  <defs>
    <linearGradient id="paper" x1="0" y1="0" x2="1" y2="1"><stop stop-color="#f6efe3"/><stop offset="1" stop-color="#e7d7bd"/></linearGradient>
    <linearGradient id="red" x1="0" y1="0" x2="1" y2="1"><stop stop-color="#8d1117"/><stop offset="1" stop-color="#d13a25"/></linearGradient>
    <filter id="shadow"><feDropShadow dx="0" dy="14" stdDeviation="16" flood-color="#2d160e" flood-opacity=".22"/></filter>
  </defs>
  <rect width="1600" height="1000" fill="url(#paper)"/>
  <rect x="54" y="48" width="1492" height="904" rx="24" fill="#fffaf0" stroke="#3b241d" stroke-width="4" filter="url(#shadow)"/>
  <text x="800" y="112" text-anchor="middle" font-family="Georgia, 'Noto Serif SC', serif" font-size="42" fill="#2a1a16" font-weight="700">CHARACTER DESIGN SHEET / 林澈</text>
  <text x="800" y="154" text-anchor="middle" font-family="Arial, 'Noto Sans SC', sans-serif" font-size="22" fill="#795548">学生男主 · 丧尸循环重生 · 红色学生卡为命运物件</text>
  <g transform="translate(120 210)">
    <rect width="360" height="620" rx="18" fill="#e6d5b8" stroke="#2f211c" stroke-width="3"/>
    <circle cx="180" cy="158" r="70" fill="#f0c6a4" stroke="#2f211c" stroke-width="4"/>
    <path d="M110 145c14-72 130-90 154-14 22-6 42 20 30 54-38-18-74-22-112-18-40 4-70 20-102 37-12-34 5-57 30-59z" fill="#1d1c1b"/>
    <path d="M96 244c46-44 130-50 184-6 38 42 64 138 76 350H52c12-208 12-282 44-344z" fill="#1f3a4a" stroke="#2f211c" stroke-width="4"/>
    <path d="M92 288h176l-34 118H126z" fill="#d9e7e5" opacity=".85"/>
    <rect x="210" y="356" width="62" height="88" rx="8" fill="url(#red)" stroke="#2f211c" stroke-width="3"/>
    <text x="180" y="675" text-anchor="middle" font-family="Arial" font-size="24" fill="#2a1a16" font-weight="700">正面</text>
  </g>
  <g transform="translate(545 210)">
    <rect width="250" height="620" rx="18" fill="#efe2ca" stroke="#2f211c" stroke-width="3"/>
    <ellipse cx="125" cy="160" rx="54" ry="70" fill="#f0c6a4" stroke="#2f211c" stroke-width="4"/>
    <path d="M76 130c26-62 98-62 119 2-14 8-36 12-66 11-24-1-42-5-53-13z" fill="#1d1c1b"/>
    <path d="M72 246c32-40 90-42 116-2 20 56 32 152 40 345H38c8-191 14-293 34-343z" fill="#1f3a4a" stroke="#2f211c" stroke-width="4"/>
    <rect x="126" y="360" width="42" height="78" rx="6" fill="url(#red)" stroke="#2f211c" stroke-width="3"/>
    <text x="125" y="675" text-anchor="middle" font-family="Arial" font-size="24" fill="#2a1a16" font-weight="700">侧面</text>
  </g>
  <g transform="translate(850 210)">
    <rect width="250" height="620" rx="18" fill="#e6d5b8" stroke="#2f211c" stroke-width="3"/>
    <ellipse cx="125" cy="160" rx="58" ry="70" fill="#1d1c1b" stroke="#2f211c" stroke-width="4"/>
    <path d="M64 248c28-42 96-46 122 0 28 70 38 182 42 341H38c5-165 8-272 26-341z" fill="#1f3a4a" stroke="#2f211c" stroke-width="4"/>
    <path d="M72 310h116" stroke="#d9e7e5" stroke-width="16" opacity=".5"/>
    <text x="125" y="675" text-anchor="middle" font-family="Arial" font-size="24" fill="#2a1a16" font-weight="700">背面</text>
  </g>
  <g transform="translate(1160 210)">
    <rect width="310" height="180" rx="18" fill="#2b221d"/>
    <text x="34" y="52" font-family="Arial, 'Noto Sans SC'" font-size="25" fill="#f8efe2" font-weight="700">关键物件</text>
    <rect x="42" y="82" width="100" height="64" rx="8" fill="url(#red)" stroke="#f4dcc2" stroke-width="3"/>
    <circle cx="68" cy="114" r="15" fill="#f6d5b5"/>
    <rect x="164" y="82" width="92" height="64" rx="6" fill="#d9e7e5" stroke="#f4dcc2" stroke-width="3"/>
    <text x="52" y="166" font-family="Arial, 'Noto Sans SC'" font-size="18" fill="#f8efe2">猩红学生卡 / 铃声记录</text>
    <rect y="220" width="310" height="190" rx="18" fill="#fff1d2" stroke="#2f211c" stroke-width="3"/>
    <text x="30" y="268" font-family="Arial, 'Noto Sans SC'" font-size="24" fill="#2a1a16" font-weight="700">表情三态</text>
    <circle cx="72" cy="334" r="34" fill="#f0c6a4" stroke="#2f211c" stroke-width="3"/><path d="M55 326h34M60 346c18 14 34 14 50 0" stroke="#2f211c" stroke-width="4" fill="none"/>
    <circle cx="156" cy="334" r="34" fill="#f0c6a4" stroke="#2f211c" stroke-width="3"/><path d="M138 327h36M143 354c16-12 32-12 48 0" stroke="#2f211c" stroke-width="4" fill="none"/>
    <circle cx="240" cy="334" r="34" fill="#f0c6a4" stroke="#2f211c" stroke-width="3"/><path d="M222 326l36 8M226 354h32" stroke="#2f211c" stroke-width="4" fill="none"/>
    <rect y="450" width="310" height="170" rx="18" fill="#7b1113"/>
    <text x="30" y="500" font-family="Arial, 'Noto Sans SC'" font-size="24" fill="#fff4df" font-weight="700">色彩锁定</text>
    <circle cx="58" cy="552" r="28" fill="#8d1117"/><circle cx="126" cy="552" r="28" fill="#1f3a4a"/><circle cx="194" cy="552" r="28" fill="#f1d7a8"/><circle cx="262" cy="552" r="28" fill="#101010"/>
  </g>
</svg>
